<svg xmlns="http://www.w3.org/2000/svg" fill-rule="evenodd" stroke-linejoin="round" stroke-miterlimit="2" clip-rule="evenodd" viewBox="0 0 96 96" id="bed" class="featureImages">
  <rect width="96" height="96" fill="none"></rect>
  <path d="M78.009 17.525c-19.57-7.849-39.142-8.121-58.714-.053-.766.315-1.131 1.193-.816 1.958.316.766 1.193 1.131 1.959.815 18.819-7.757 37.637-7.483 56.454.065.769.308 1.643-.066 1.951-.834.308-.769-.066-1.643-.834-1.951zM10.03 75.247l0 4.72c0 1.193.474 2.338 1.318 3.182.844.844 1.988 1.318 3.182 1.318l2.336 0c1.194 0 2.338-.474 3.182-1.318.844-.844 1.318-1.989 1.318-3.182 0 0 0-4.72 0-4.72 0-.828-.672-1.5-1.5-1.5-.828 0-1.5.672-1.5 1.5l0 4.72c0 .398-.158.779-.439 1.06-.281.282-.663.44-1.061.44 0 0-2.336 0-2.336 0-.398 0-.78-.158-1.061-.44-.281-.281-.439-.662-.439-1.06l0-4.72c0-.828-.672-1.5-1.5-1.5-.828 0-1.5.672-1.5 1.5z"></path>
  <path d="M21.366 40.803l0-23.333c0-1.504-.597-2.945-1.66-4.008-1.063-1.063-2.505-1.66-4.008-1.66 0 0 0 0 0 0-1.503 0-2.945.597-4.008 1.66-1.063 1.063-1.66 2.504-1.66 4.008 0 0 0 24.643 0 24.643 0 .828.672 1.5 1.5 1.5.828 0 1.5-.672 1.5-1.5l0-24.643c0-.708.281-1.387.781-1.887.501-.5 1.179-.781 1.887-.781l0 0c.708 0 1.386.281 1.887.781.5.5.781 1.179.781 1.887l0 23.333c0 .828.672 1.5 1.5 1.5.828 0 1.5-.672 1.5-1.5zM75.951 75.247l0 4.72c0 1.193.474 2.338 1.318 3.182.844.844 1.988 1.318 3.182 1.318l2.336 0c1.193 0 2.338-.474 3.182-1.318.844-.844 1.318-1.989 1.318-3.182 0 0 0-4.72 0-4.72 0-.828-.672-1.5-1.5-1.5-.828 0-1.5.672-1.5 1.5l0 4.72c0 .398-.158.779-.439 1.06-.282.282-.663.44-1.061.44 0 0-2.336 0-2.336 0-.398 0-.78-.158-1.061-.44-.281-.281-.439-.662-.439-1.06l0-4.72c0-.828-.673-1.5-1.5-1.5-.828 0-1.5.672-1.5 1.5zM87.287 42.874l0-25.404c0-1.504-.597-2.945-1.66-4.008-1.063-1.063-2.505-1.66-4.008-1.66 0 0 0 0 0 0-1.504 0-2.945.597-4.008 1.66-1.063 1.063-1.66 2.504-1.66 4.008 0 0 0 23.333 0 23.333 0 .828.672 1.5 1.5 1.5.827 0 1.5-.672 1.5-1.5l0-23.333c0-.708.281-1.387.781-1.887.5-.5 1.179-.781 1.887-.781l0 0c.707 0 1.386.281 1.886.781.501.5.782 1.179.782 1.887l0 25.404c0 .828.672 1.5 1.5 1.5.828 0 1.5-.672 1.5-1.5z"></path>
  <path d="M92.62,52.684c0,-3.554 -1.45,-6.964 -4.038,-9.477c-2.572,-2.498 -6.059,-3.904 -9.696,-3.904c-16.407,0 -45.365,0 -61.772,0c-3.637,0 -7.124,1.406 -9.696,3.904c-2.588,2.513 -4.038,5.923 -4.038,9.477c-0,0.828 0.672,1.5 1.5,1.5c0.828,-0 1.5,-0.672 1.5,-1.5c-0,-2.748 1.127,-5.382 3.128,-7.325c2.017,-1.959 4.754,-3.056 7.606,-3.056c16.407,0 45.365,0 61.772,0c2.852,0 5.589,1.097 7.606,3.056c2.001,1.943 3.128,4.577 3.128,7.325c0,0.828 0.672,1.5 1.5,1.5c0.828,-0 1.5,-0.672 1.5,-1.5Z"></path>
  <path d="M10.482,52.626l-5.482,-0c-2.485,-0 -4.5,2.015 -4.5,4.5l-0,15.121c0,2.486 2.015,4.5 4.5,4.5c13.915,0 72.085,0 86,0c2.485,0 4.5,-2.014 4.5,-4.5l-0,-15.121c-0,-2.485 -2.015,-4.5 -4.5,-4.5c-11.515,-0 -52.608,-0 -74.577,-0c-0.828,-0 -1.5,0.672 -1.5,1.5c-0,0.828 0.672,1.5 1.5,1.5l74.577,-0c0.828,-0 1.5,0.671 1.5,1.5c-0,-0 -0,15.121 -0,15.121c-0,0.829 -0.672,1.5 -1.5,1.5c-0,0 -86,0 -86,0c-0.828,0 -1.5,-0.671 -1.5,-1.5c-0,0 0,-15.121 0,-15.121c0,-0.829 0.672,-1.5 1.5,-1.5c0,-0 5.482,-0 5.482,-0c0.828,-0 1.5,-0.672 1.5,-1.5c0,-0.828 -0.672,-1.5 -1.5,-1.5Z"></path>
  <path d="M2 66.187l92 0c.828 0 1.5-.673 1.5-1.5 0-.828-.672-1.5-1.5-1.5l-92 0c-.828 0-1.5.672-1.5 1.5 0 .827.672 1.5 1.5 1.5zM26.496 21.373l0 2.168c0 .828.673 1.5 1.5 1.5.828 0 1.5-.672 1.5-1.5l0-2.168c0-.828-.672-1.5-1.5-1.5-.827 0-1.5.672-1.5 1.5zM26.496 33.44l0 2.168c0 .828.673 1.5 1.5 1.5.828 0 1.5-.672 1.5-1.5l0-2.168c0-.828-.672-1.5-1.5-1.5-.827 0-1.5.672-1.5 1.5zM47.158 21.373l0 2.168c0 .828.673 1.5 1.5 1.5.828 0 1.5-.672 1.5-1.5l0-2.168c0-.828-.672-1.5-1.5-1.5-.827 0-1.5.672-1.5 1.5zM67.82 21.373l0 2.168c0 .828.672 1.5 1.5 1.5.828 0 1.5-.672 1.5-1.5l0-2.168c0-.828-.672-1.5-1.5-1.5-.828 0-1.5.672-1.5 1.5zM47.163 33.44l0 2.168c0 .828.672 1.5 1.5 1.5.828 0 1.5-.672 1.5-1.5l0-2.168c0-.828-.672-1.5-1.5-1.5-.828 0-1.5.672-1.5 1.5zM67.82 33.44l0 2.168c0 .828.672 1.5 1.5 1.5.828 0 1.5-.672 1.5-1.5l0-2.168c0-.828-.672-1.5-1.5-1.5-.828 0-1.5.672-1.5 1.5zM36.675 28.054l0 2.168c0 .828.673 1.5 1.5 1.5.828 0 1.5-.672 1.5-1.5l0-2.168c0-.828-.672-1.5-1.5-1.5-.827 0-1.5.672-1.5 1.5zM57.333 28.054l0 2.168c0 .828.672 1.5 1.5 1.5.828 0 1.5-.672 1.5-1.5l0-2.168c0-.828-.672-1.5-1.5-1.5-.828 0-1.5.672-1.5 1.5z"></path>
</svg>
