<svg xmlns="http://www.w3.org/2000/svg" viewBox="0 0 100 100" id="heartbeat">
  <path d="M82.38 46.49h9.599c.403 0 .681.42.51.786a26.076 26.076 0 0 1-5.209 7.414L51.24 90.67c-.68.68-1.8.68-2.48 0L12.72 54.69a26.357 26.357 0 0 1-2.026-2.274.556.556 0 0 1 .431-.906H27.98a4.75 4.75 0 0 0 4.29-2.65l2.151-4.303a.893.893 0 0 1 1.565-.059L48.02 64.63c.41.67 1.14 1.09 1.92 1.09.03 0 .06-.01.09-.01.81-.03 1.55-.5 1.91-1.23l3.5-6.99c.3-.61.92-.99 1.61-.99h5.72c1.97 0 3.72-1.18 4.45-3.01l6.745-16.884c.309-.772 1.413-.74 1.676.049L77.82 43.2a4.795 4.795 0 0 0 4.56 3.29z"></path>
  <path d="M94.047 43.079a.565.565 0 0 1-.544.411H82.38a1.8 1.8 0 0 1-1.71-1.23l-3.61-10.84c-.3-.9-1.11-1.51-2.06-1.53a2.2 2.2 0 0 0-2.14 1.4l-8.42 21.08a1.79 1.79 0 0 1-1.67 1.13h-5.72c-1.83 0-3.48 1.02-4.3 2.65l-2.87 5.74-12.86-21.52a2.23 2.23 0 0 0-2.01-1.09c-.82.03-1.55.5-1.92 1.23l-3.5 7.01c-.31.61-.92.99-1.61.99H8.472a.569.569 0 0 1-.502-.303c-5.168-9.923-3.585-22.453 4.75-30.797 10.11-10.1 26.38-10.29 36.71-.56.32.3.82.3 1.14 0 10.33-9.73 26.6-9.54 36.71.56 6.952 6.952 9.201 16.823 6.767 25.669z"></path>
</svg>
