<svg xmlns="http://www.w3.org/2000/svg" width="24" height="24" fill-rule="evenodd" stroke-linejoin="round" stroke-miterlimit="2" clip-rule="evenodd" id="water">
  <path d="M12,22C14.275,22 16.387,20.822 17.582,18.888C18.778,16.953 18.887,14.538 17.87,12.503C15.473,7.71 12.894,2.553 12.894,2.553C12.725,2.214 12.379,2 12,2C11.621,2 11.275,2.214 11.106,2.553C11.106,2.553 8.527,7.71 6.13,12.503C5.113,14.538 5.222,16.953 6.418,18.888C7.613,20.822 9.725,22 12,22L12,22ZM12,5.236L7.919,13.398C7.212,14.812 7.288,16.491 8.119,17.836C8.95,19.181 10.418,20 12,20L12,20C13.582,20 15.05,19.181 15.881,17.836C16.712,16.491 16.788,14.812 16.081,13.398L12,5.236ZM12,18C12.989,18 13.908,17.488 14.428,16.646C14.948,15.805 14.995,14.754 14.553,13.87C14.306,13.376 13.705,13.176 13.211,13.422C12.718,13.669 12.517,14.27 12.764,14.764C12.896,15.029 12.882,15.343 12.727,15.595C12.571,15.847 12.296,16 12,16C11.448,16 11,16.448 11,17C11,17.552 11.448,18 12,18Z"></path>
</svg>
